<svg width="505" height="83" viewBox="0 0 505 83" fill="none" xmlns="http://www.w3.org/2000/svg">
<path d="M0.608 81V78.312C5.216 78.312 7.904 77.4587 8.672 75.752V11.368C7.904 9.66133 5.216 8.808 0.608 8.808V6.12H32.992V8.808C28.384 8.808 25.696 9.66133 24.928 11.368V76.648H51.552C53.6853 75.7093 55.6053 73.0213 57.312 68.584H59.872L56.8 81H0.608ZM80.486 49.256C80.486 59.3253 81.8087 66.7067 84.454 71.4C87.1847 76.0933 91.3233 78.44 96.87 78.44C100.71 78.44 103.654 76.4347 105.702 72.424C107.75 68.328 108.774 62.952 108.774 56.296C108.774 45.8853 107.537 38.4613 105.062 34.024C102.673 29.5867 98.3633 27.368 92.134 27.368C88.4647 27.368 85.606 29.5013 83.558 33.768C81.51 38.0347 80.486 43.1973 80.486 49.256ZM95.206 82.28C85.5633 82.28 77.8833 79.464 72.166 73.832C66.534 68.2 63.718 60.8613 63.718 51.816C63.718 43.7093 66.278 36.968 71.398 31.592C76.6033 26.1307 84.2407 23.4 94.31 23.4C104.465 23.4 112.187 26.088 117.478 31.464C122.854 36.84 125.542 44.136 125.542 53.352C125.542 61.544 122.982 68.4133 117.862 73.96C112.742 79.5067 105.19 82.28 95.206 82.28ZM132.572 81V78.312C137.18 78.312 139.868 77.4587 140.636 75.752V32.36C136.028 32.0187 133.34 31.848 132.572 31.848V28.904C134.193 28.904 138.119 28.008 144.348 26.216C150.577 24.3387 154.673 23.4 156.636 23.4V28.776C161.073 25.192 165.297 23.4 169.308 23.4C179.889 23.4 185.18 25.96 185.18 31.08C185.18 33.128 184.54 34.7493 183.26 35.944C182.065 37.1387 180.572 37.736 178.78 37.736C176.817 37.736 175.324 37.224 174.3 36.2C173.276 35.176 172.636 34.024 172.38 32.744C172.124 31.464 171.612 30.312 170.844 29.288C170.161 28.264 169.137 27.752 167.772 27.752C164.529 27.752 160.817 29.544 156.636 33.128V75.752C157.404 77.4587 160.092 78.312 164.7 78.312V81H132.572ZM201.89 34.152C203.853 34.152 204.834 35.9013 204.834 39.4C204.834 40.8507 204.109 41.96 202.658 42.728C201.207 43.496 199.671 43.88 198.05 43.88C196.343 43.88 194.807 43.2827 193.442 42.088C192.162 40.8933 191.522 39.3573 191.522 37.48C191.522 33.128 193.655 29.7147 197.922 27.24C202.274 24.68 207.906 23.4 214.818 23.4C222.925 23.4 229.239 25.448 233.762 29.544C238.285 33.5547 240.546 38.6747 240.546 44.904V70.248C240.546 72.9787 240.973 74.984 241.826 76.264C242.765 77.544 243.874 78.184 245.154 78.184C246.263 78.184 247.245 77.8853 248.098 77.288C249.037 76.6907 249.506 75.9653 249.506 75.112H251.81C251.81 79.72 247.117 82.024 237.73 82.024C233.378 82.024 230.007 80.488 227.618 77.416C222.498 80.6587 216.567 82.28 209.826 82.28C195.575 82.28 188.45 77.0747 188.45 66.664C188.45 64.5307 189.175 62.6107 190.626 60.904C192.162 59.1973 194.466 57.7467 197.538 56.552C200.61 55.3573 203.341 54.4187 205.73 53.736C208.205 53.0533 211.575 52.2853 215.842 51.432C220.109 50.4933 223.01 49.8107 224.546 49.384C224.546 41.3627 223.863 35.816 222.498 32.744C221.218 29.5867 218.231 28.008 213.538 28.008C210.722 28.008 208.162 28.6053 205.858 29.8C203.639 30.9093 202.317 32.36 201.89 34.152ZM225.826 74.344C224.973 72.04 224.546 69.48 224.546 66.664V52.2C217.293 54.4187 212.514 56.2533 210.21 57.704C206.626 60.0933 204.834 63.1653 204.834 66.92C204.834 70.8453 205.645 73.6613 207.266 75.368C208.973 77.0747 210.893 77.928 213.026 77.928C216.781 77.928 221.047 76.7333 225.826 74.344ZM280.857 82.28C276.676 82.28 272.409 81.64 268.057 80.36C263.705 79.08 261.444 78.44 261.273 78.44C260.761 78.44 260.164 78.696 259.481 79.208C258.798 79.72 258.457 80.3173 258.457 81H255.513V60.776H258.329C259.268 65.8107 262.084 69.9493 266.777 73.192C271.47 76.3493 275.908 77.928 280.089 77.928C284.356 77.928 287.769 76.8187 290.329 74.6C292.974 72.296 294.297 69.3093 294.297 65.64C294.297 64.36 293.87 63.1227 293.017 61.928C292.249 60.648 290.969 59.368 289.177 58.088C287.47 56.7227 285.934 55.6133 284.569 54.76C283.204 53.8213 281.198 52.584 278.553 51.048C275.993 49.512 274.158 48.4027 273.049 47.72C261.444 40.552 255.641 32.872 255.641 24.68C255.641 19.6453 257.945 15.08 262.553 10.984C267.161 6.888 272.324 4.84 278.041 4.84C280.601 4.84 283.716 5.48 287.385 6.75999C291.054 8.04 293.102 8.68 293.529 8.68C294.553 8.68 295.065 7.82667 295.065 6.12H298.009L299.289 25.448H296.473C295.961 21.9493 293.657 18.3653 289.561 14.696C285.465 11.0267 281.668 9.19199 278.169 9.19199C274.329 9.19199 271.428 10.4293 269.465 12.904C267.502 15.2933 266.521 17.8533 266.521 20.584C266.521 21.6933 266.905 22.8027 267.673 23.912C268.441 24.936 269.678 26.088 271.385 27.368C273.092 28.648 274.585 29.7147 275.865 30.568C277.145 31.336 279.108 32.488 281.753 34.024C284.398 35.56 286.233 36.6267 287.257 37.224C293.145 40.808 297.753 44.52 301.081 48.36C304.409 52.2 306.073 56.7653 306.073 62.056C306.073 68.3707 303.513 73.32 298.393 76.904C293.273 80.488 287.428 82.28 280.857 82.28ZM310.917 81V78.312C315.525 78.312 318.213 77.4587 318.981 75.752V9.32C314.373 8.97867 311.685 8.808 310.917 8.808V5.864C312.538 5.864 316.464 4.968 322.693 3.17599C328.922 1.29866 333.018 0.359993 334.981 0.359993V28.392C340.101 25.064 345.178 23.4 350.213 23.4C358.661 23.4 365.061 24.7653 369.413 27.496C373.765 30.2267 375.941 34.7493 375.941 41.064V75.752C376.709 77.4587 379.397 78.312 384.005 78.312V81H351.877V78.312C356.485 78.312 359.173 77.4587 359.941 75.752V44.136C359.941 38.248 359.045 34.0667 357.253 31.592C355.546 29.032 352.944 27.752 349.445 27.752C344.325 27.752 339.504 29.288 334.981 32.36V75.752C335.749 77.4587 338.437 78.312 343.045 78.312V81H310.917ZM405.483 50.152C405.654 57.576 407.318 63.976 410.475 69.352C413.718 74.728 417.814 77.416 422.763 77.416C430.187 77.416 436.16 74.6 440.683 68.968L443.755 70.504C441.28 74.6 438.038 77.5867 434.027 79.464C430.102 81.3413 424.896 82.28 418.411 82.28C415.083 82.28 411.84 81.8107 408.683 80.872C405.526 79.848 402.368 78.2267 399.211 76.008C396.139 73.704 393.622 70.3333 391.659 65.896C389.782 61.4587 388.843 56.168 388.843 50.024C388.843 42.6 391.446 36.328 396.651 31.208C401.942 26.0027 408.768 23.4 417.131 23.4C426.262 23.4 433.344 26.0027 438.379 31.208C443.414 36.328 445.931 42.6427 445.931 50.152H405.483ZM405.611 46.184H428.907C428.395 40.1253 427.328 35.4747 425.707 32.232C424.171 28.904 421.654 27.24 418.155 27.24C415.083 27.24 412.31 28.8187 409.835 31.976C407.446 35.048 406.038 39.784 405.611 46.184ZM452.072 81V78.312C456.68 78.312 459.368 77.4587 460.136 75.752V32.36C455.528 32.0187 452.84 31.848 452.072 31.848V28.904C453.693 28.904 457.619 28.008 463.848 26.216C470.077 24.3387 474.173 23.4 476.136 23.4V28.776C480.573 25.192 484.797 23.4 488.808 23.4C499.389 23.4 504.68 25.96 504.68 31.08C504.68 33.128 504.04 34.7493 502.76 35.944C501.565 37.1387 500.072 37.736 498.28 37.736C496.317 37.736 494.824 37.224 493.8 36.2C492.776 35.176 492.136 34.024 491.88 32.744C491.624 31.464 491.112 30.312 490.344 29.288C489.661 28.264 488.637 27.752 487.272 27.752C484.029 27.752 480.317 29.544 476.136 33.128V75.752C476.904 77.4587 479.592 78.312 484.2 78.312V81H452.072Z" fill="url(#paint0_linear_2_2)"/>
<defs>
<linearGradient id="paint0_linear_2_2" x1="13.3979" y1="56.2" x2="483.144" y2="52.5123" gradientUnits="userSpaceOnUse">
<stop stop-color="#0E69F2"/>
<stop offset="0.46875" stop-color="#AF59D7"/>
<stop offset="1" stop-color="#113F85"/>
</linearGradient>
</defs>
</svg>
